<svg xmlns="http://www.w3.org/2000/svg" viewBox="0 0 256 256" width="256" height="256">
  <!-- Background circle -->
  <circle cx="128" cy="128" r="120" fill="#1a1a2e"/>
  <!-- Lantern body -->
  <rect x="88" y="80" width="80" height="110" rx="8" fill="none" stroke="#f59e0b" stroke-width="6"/>
  <!-- Lantern top cap -->
  <rect x="78" y="70" width="100" height="16" rx="4" fill="#f59e0b"/>
  <!-- Lantern handle -->
  <path d="M108 70 Q108 40 128 40 Q148 40 148 70" fill="none" stroke="#f59e0b" stroke-width="6" stroke-linecap="round"/>
  <!-- Lantern bottom -->
  <rect x="78" y="184" width="100" height="16" rx="4" fill="#f59e0b"/>
  <!-- Flame glow -->
  <ellipse cx="128" cy="140" rx="24" ry="30" fill="#f59e0b" opacity="0.2"/>
  <!-- Flame -->
  <path d="M128 160 Q116 145 120 130 Q124 118 128 110 Q132 118 136 130 Q140 145 128 160Z" fill="#f59e0b"/>
  <path d="M128 155 Q121 145 124 135 Q126 126 128 120 Q130 126 132 135 Q135 145 128 155Z" fill="#fbbf24"/>
  <path d="M128 148 Q124 142 126 136 Q127 131 128 128 Q129 131 130 136 Q132 142 128 148Z" fill="#fef3c7"/>
</svg>
